<svg xmlns="http://www.w3.org/2000/svg" viewBox="0 0 218.4 49.1"><style>.st0{fill:#fff}.st1{fill:#231f20;stroke:#fdcf09;stroke-miterlimit:10}</style><g id="Layer_2"><path class="st0" d="M23.2 48.5l-6.7-9.7H9.1v9.7H1V13.6h15.1c3.1 0 5.8.5 8 1.5 2.3 1 4 2.5 5.2 4.4 1.2 1.9 1.8 4.1 1.8 6.7s-.6 4.8-1.9 6.7c-1.2 1.9-3 3.3-5.3 4.3l7.8 11.2h-8.5zm-2.1-26.7c-1.3-1-3.1-1.6-5.5-1.6H9.1v12.1h6.6c2.4 0 4.3-.5 5.5-1.6 1.3-1.1 1.9-2.6 1.9-4.5-.1-1.9-.7-3.4-2-4.4zM64.5 42v6.5h-27V13.6h26.3v6.5H45.6v7.6h16.2V34H45.6v8h18.9zM102.9 13.6v34.8h-6.6L78.9 27.3v21.1h-8V13.6h6.7l17.3 21.1V13.6h8zM139.3 41.9v6.6h-30.4v-5.2l19.1-23h-18.7v-6.6h29.3v5.2l-19.1 23h19.8zM161.2 36.1v12.3h-8.1V36l-13.5-22.4h8.6l9.3 15.5 9.3-15.5h7.9l-13.5 22.5zM209.4 48.5V27.6l-10.2 17.2h-3.6L185.3 28v20.4h-7.6V13.6h6.7l13 21.6 12.8-21.6h6.6l.1 34.8h-7.5z"/><g><path class="st1" d="M152.7 8.3h-4.8l-1 2.3h-1l4-8.7h.9l4 8.7h-1l-1.1-2.3zm-.3-.8l-2.1-4.7-2.1 4.7h4.2zM156.9 9.7c-.6-.6-.9-1.6-.9-2.8v-5h.9v4.9c0 1 .2 1.8.7 2.3.5.5 1.1.7 2 .7.9 0 1.5-.2 2-.7.5-.5.7-1.3.7-2.3V1.9h.9v5c0 1.2-.3 2.2-.9 2.8-.6.6-1.5 1-2.6 1-1.3 0-2.2-.4-2.8-1zM166.4 10.3c-.6-.2-1.1-.5-1.4-.8l.4-.7c.3.3.7.6 1.3.8.5.2 1.1.3 1.6.3.8 0 1.4-.1 1.8-.4.4-.3.6-.7.6-1.1 0-.3-.1-.6-.3-.8s-.5-.4-.8-.5-.7-.2-1.3-.4c-.7-.2-1.2-.3-1.6-.5-.4-.2-.7-.4-1-.7-.3-.3-.4-.7-.4-1.3 0-.4.1-.8.3-1.2.2-.4.6-.6 1.1-.9.5-.2 1.1-.3 1.8-.3.5 0 1 .1 1.5.2s.9.3 1.2.6l-.3.7c-.4-.2-.8-.4-1.2-.5-.4-.1-.8-.2-1.2-.2-.8 0-1.3.1-1.7.4-.4.3-.6.7-.6 1.1 0 .3.1.6.3.8.2.2.5.4.8.5.3.1.7.2 1.3.4.6.2 1.2.3 1.5.5.4.2.7.4 1 .7.3.3.4.7.4 1.3 0 .4-.1.8-.4 1.2-.2.4-.6.6-1.1.9-.5.2-1.1.3-1.8.3-.6 0-1.2-.1-1.8-.4zM175.1 2.7H172v-.8h7v.8h-3v7.9h-.9V2.7zM186.4 10.6l-2-2.8h-3v2.8h-.9V1.9h3.3c1.1 0 2 .3 2.6.8.6.5.9 1.3.9 2.2 0 .7-.2 1.3-.5 1.7-.3.5-.8.8-1.5 1l2.1 3h-1zm-.7-4.1c.5-.4.7-.9.7-1.6 0-.7-.2-1.2-.7-1.6-.5-.4-1.1-.6-2-.6h-2.3V7h2.3c.9 0 1.6-.2 2-.5zM194.9 8.3h-4.8l-1 2.3h-1l4-8.7h.9l4 8.7h-1l-1.1-2.3zm-.3-.8l-2.1-4.7-2.1 4.7h4.2zM198.4 1.9h.9v7.9h4.9v.8h-5.8V1.9zM205.7 1.9h.9v8.7h-.9V1.9zM214.9 8.3H210l-1 2.3h-1l4-8.7h.9l4 8.7h-1l-1-2.3zm-.3-.8l-2.1-4.7-2.1 4.7h4.2z"/></g></g></svg>