<?xml version="1.0" encoding="utf-8"?>
<!-- Generator: Adobe Illustrator 23.0.3, SVG Export Plug-In . SVG Version: 6.00 Build 0)  -->
<svg version="1.1" xmlns="http://www.w3.org/2000/svg" xmlns:xlink="http://www.w3.org/1999/xlink" x="0px" y="0px"
	 viewBox="0 0 255.6 49.1" style="enable-background:new 0 0 255.6 49.1;" xml:space="preserve">
<style type="text/css">
	.st0{clip-path:url(#SVGID_2_);}
	.st1{clip-path:url(#SVGID_4_);fill:#FECE08;}
	.st2{fill:#FFFFFF;}
	.st3{font-family:'Headshots';}
	.st4{font-size:28.0213px;}
	.st5{fill:#FDCF09;}
</style>
<g id="Layer_1">
	<g>
		<g>
			<defs>
				<rect id="SVGID_1_" x="-15.6" y="-9.1" width="556.1" height="317.8"/>
			</defs>
			<clipPath id="SVGID_2_">
				<use xlink:href="#SVGID_1_"  style="overflow:visible;"/>
			</clipPath>
			<g class="st0">
				<defs>
					<rect id="SVGID_3_" x="-15.6" y="-9.1" width="556.1" height="317.8"/>
				</defs>
				<clipPath id="SVGID_4_">
					<use xlink:href="#SVGID_3_"  style="overflow:visible;"/>
				</clipPath>
				<path class="st1" d="M48.9,24.6C48.9,38,38,48.9,24.6,48.9C11.2,48.9,0.3,38,0.3,24.6c0-13.4,10.9-24.3,24.3-24.3
					C38,0.3,48.9,11.2,48.9,24.6"/>
			</g>
			<g class="st0">
				<text transform="matrix(1 0 0 1 11.188 34.8809)" class="st2 st3 st4">R</text>
			</g>
			<g class="st0">
				<text transform="matrix(1 0 0 1 91.3926 392.6768)"><tspan x="0" y="0" style="fill:#FECE08; font-family:'Montserrat-Bold'; font-size:6.9841px;">A</tspan><tspan x="5.2" y="0" style="fill:#FECE08; font-family:'Montserrat-Bold'; font-size:6.9841px;">U</tspan><tspan x="10.7" y="0" style="fill:#FECE08; font-family:'Montserrat-Bold'; font-size:6.9841px;">S</tspan><tspan x="15.1" y="0" style="fill:#FECE08; font-family:'Montserrat-Bold'; font-size:6.9841px;">TRALIA</tspan></text>
			</g>
			<g class="st0">
				
					<text transform="matrix(1 0 0 1 132.1094 392.6768)" style="fill:#FECE08; font-family:'MinionPro-Regular'; font-size:6.9841px;"> </text>
			</g>
			<g class="st0">
				<text transform="matrix(1 0 0 1 -12.9277 425.7979)" class="st2" style="font-family:'Montserrat-Bold'; font-size:33.1745px;">RENZYM</text>
			</g>
			<g class="st0">
				<text transform="matrix(1 0 0 1 7.5664 270.5645)"><tspan x="0" y="0" class="st2" style="font-family:'Roboto-Regular'; font-size:4.6561px;">Lo</tspan><tspan x="5.2" y="0" class="st2" style="font-family:'Roboto-Regular'; font-size:4.6561px;">r</tspan><tspan x="6.7" y="0" class="st2" style="font-family:'Roboto-Regular'; font-size:4.6561px;">em ipsum dolor sit amet, consectetur adipiscing elit. Morbi vi</tspan><tspan x="132.3" y="0" class="st2" style="font-family:'Roboto-Regular'; font-size:4.6561px;">v</tspan><tspan x="134.5" y="0" class="st2" style="font-family:'Roboto-Regular'; font-size:4.6561px;">erra pulvinar erat, efficitur ultrices odio </tspan></text>
			</g>
			<g class="st0">
				<text transform="matrix(1 0 0 1 7.5664 276.1523)" class="st2" style="font-family:'Roboto-Regular'; font-size:4.6561px;">semper sed. Ut</text>
			</g>
			<g class="st0">
				<text transform="matrix(1 0 0 1 39.1021 276.1523)" style="fill:#FECE08; font-family:'Roboto-Bold'; font-size:4.6561px;"> tristique lorem a augu</text>
			</g>
			<g class="st0">
				<text transform="matrix(1 0 0 1 86.1099 276.1523)" style="fill:#FECE08; font-family:'Roboto-Regular'; font-size:4.6561px;">e</text>
			</g>
			<g class="st0">
				<text transform="matrix(1 0 0 1 88.5728 276.1523)"><tspan x="0" y="0" class="st2" style="font-family:'Roboto-Regular'; font-size:4.6561px;"> </tspan><tspan x="1.2" y="0" class="st2" style="font-family:'Roboto-Regular'; font-size:4.6561px;">f</tspan><tspan x="2.7" y="0" class="st2" style="font-family:'Roboto-Regular'; font-size:4.6561px;">ermentum, et vulputate libe</tspan><tspan x="58.9" y="0" class="st2" style="font-family:'Roboto-Regular'; font-size:4.6561px;">r</tspan><tspan x="60.4" y="0" class="st2" style="font-family:'Roboto-Regular'; font-size:4.6561px;">o sollicitudin. Nullam eget consequat </tspan></text>
			</g>
			<g class="st0">
				<text transform="matrix(1 0 0 1 7.5664 281.7393)"><tspan x="0" y="0" class="st2" style="font-family:'Roboto-Regular'; font-size:4.6561px;">tellus. Cras molestie sit amet quam sit amet aliquam. Nunc </tspan><tspan x="123.2" y="0" class="st2" style="font-family:'Roboto-Regular'; font-size:4.6561px;">v</tspan><tspan x="125.4" y="0" class="st2" style="font-family:'Roboto-Regular'; font-size:4.6561px;">olutpat mollis nisl, in elementum neque. Nunc </tspan></text>
			</g>
			<g class="st0">
				<text transform="matrix(1 0 0 1 7.5664 287.3262)"><tspan x="0" y="0" class="st2" style="font-family:'Roboto-Regular'; font-size:4.6561px;">vitae nisl tincidunt, ullamcorper dui nec, pulvinar libe</tspan><tspan x="107.4" y="0" class="st2" style="font-family:'Roboto-Regular'; font-size:4.6561px;">r</tspan><tspan x="108.9" y="0" class="st2" style="font-family:'Roboto-Regular'; font-size:4.6561px;">o. </tspan></text>
			</g>
		</g>
	</g>
</g>
<g id="Layer_2">
	<g>
		<path class="st2" d="M72.6,38.8l-4.9-7h-0.3h-5.1v7h-5.8V13.6h10.9c2.2,0,4.2,0.4,5.8,1.1c1.6,0.7,2.9,1.8,3.8,3.2
			c0.9,1.4,1.3,3,1.3,4.9s-0.4,3.5-1.3,4.8c-0.9,1.4-2.2,2.4-3.8,3.1l5.7,8.1H72.6z M71.1,19.5c-0.9-0.8-2.2-1.1-4-1.1h-4.8v8.8h4.8
			c1.8,0,3.1-0.4,4-1.2s1.4-1.8,1.4-3.2C72.4,21.3,72,20.2,71.1,19.5z"/>
		<path class="st2" d="M102.5,34.1v4.7H83V13.6h19v4.7H88.8v5.5h11.7v4.5H88.8v5.8H102.5z"/>
		<path class="st2" d="M130.2,13.6v25.2h-4.8l-12.6-15.3v15.3h-5.8V13.6h4.8l12.5,15.3V13.6H130.2z"/>
		<path class="st2" d="M156.6,34v4.8h-22V35l13.8-16.7h-13.5v-4.8h21.2v3.8L142.3,34H156.6z"/>
		<path class="st2" d="M172.5,29.9v8.9h-5.8v-9l-9.8-16.2h6.2l6.7,11.2l6.7-11.2h5.7L172.5,29.9z"/>
		<path class="st2" d="M207.4,38.8l0-15.1l-7.4,12.5h-2.6L189.9,24v14.8h-5.5V13.6h4.8l9.4,15.7l9.3-15.7h4.8l0.1,25.2H207.4z"/>
	</g>
	<g>
		<path class="st5" d="M166.3,9h-3.5l-0.8,1.7h-0.7l2.9-6.3h0.7l2.9,6.3h-0.7L166.3,9z M166.1,8.4L164.6,5l-1.5,3.4H166.1z"/>
		<path class="st5" d="M169.3,10c-0.5-0.5-0.7-1.1-0.7-2V4.4h0.7v3.6c0,0.7,0.2,1.3,0.5,1.6s0.8,0.5,1.4,0.5c0.6,0,1.1-0.2,1.4-0.5
			s0.5-0.9,0.5-1.6V4.4h0.6V8c0,0.9-0.2,1.6-0.7,2c-0.5,0.5-1.1,0.7-1.9,0.7C170.4,10.7,169.8,10.5,169.3,10z"/>
		<path class="st5" d="M176.2,10.5c-0.4-0.1-0.8-0.3-1-0.6l0.3-0.5c0.2,0.2,0.5,0.4,0.9,0.6c0.4,0.1,0.8,0.2,1.2,0.2
			c0.6,0,1-0.1,1.3-0.3c0.3-0.2,0.4-0.5,0.4-0.8c0-0.3-0.1-0.5-0.2-0.6s-0.3-0.3-0.6-0.3s-0.5-0.2-0.9-0.3c-0.5-0.1-0.9-0.2-1.1-0.3
			c-0.3-0.1-0.5-0.3-0.7-0.5c-0.2-0.2-0.3-0.5-0.3-0.9c0-0.3,0.1-0.6,0.3-0.9c0.2-0.3,0.4-0.5,0.8-0.6c0.3-0.2,0.8-0.2,1.3-0.2
			c0.4,0,0.7,0,1.1,0.1c0.3,0.1,0.6,0.2,0.9,0.4l-0.2,0.5c-0.3-0.2-0.5-0.3-0.8-0.4c-0.3-0.1-0.6-0.1-0.9-0.1c-0.6,0-1,0.1-1.2,0.3
			C176.2,5.4,176,5.7,176,6c0,0.3,0.1,0.5,0.2,0.6c0.2,0.2,0.3,0.3,0.6,0.4c0.2,0.1,0.5,0.2,0.9,0.3c0.5,0.1,0.8,0.2,1.1,0.3
			c0.3,0.1,0.5,0.3,0.7,0.5s0.3,0.5,0.3,0.9c0,0.3-0.1,0.6-0.3,0.9c-0.2,0.3-0.4,0.5-0.8,0.6c-0.4,0.2-0.8,0.2-1.3,0.2
			C177.1,10.7,176.6,10.6,176.2,10.5z"/>
		<path class="st5" d="M182.5,4.9h-2.2V4.4h5.1v0.6h-2.2v5.7h-0.7V4.9z"/>
		<path class="st5" d="M190.7,10.6l-1.4-2c-0.2,0-0.3,0-0.5,0h-1.7v2h-0.7V4.4h2.4c0.8,0,1.4,0.2,1.9,0.6c0.5,0.4,0.7,0.9,0.7,1.6
			c0,0.5-0.1,0.9-0.4,1.2s-0.6,0.6-1.1,0.7l1.5,2.2H190.7z M190.2,7.7c0.3-0.3,0.5-0.7,0.5-1.2c0-0.5-0.2-0.9-0.5-1.2
			s-0.8-0.4-1.4-0.4h-1.7v3.2h1.7C189.4,8.1,189.9,7.9,190.2,7.7z"/>
		<path class="st5" d="M196.9,9h-3.5l-0.8,1.7h-0.7l2.9-6.3h0.7l2.9,6.3h-0.7L196.9,9z M196.6,8.4L195.1,5l-1.5,3.4H196.6z"/>
		<path class="st5" d="M199.4,4.4h0.7v5.7h3.5v0.6h-4.2V4.4z"/>
		<path class="st5" d="M204.7,4.4h0.7v6.3h-0.7V4.4z"/>
		<path class="st5" d="M211.4,9h-3.5l-0.8,1.7h-0.7l2.9-6.3h0.7l2.9,6.3h-0.7L211.4,9z M211.1,8.4L209.6,5l-1.5,3.4H211.1z"/>
	</g>
</g>
</svg>
